<svg width="321" height="599" viewBox="0 0 321 599" fill="none" xmlns="http://www.w3.org/2000/svg">
<path d="M162.086 365.997C173.399 295.984 217.996 137.735 305.888 64.8424H313.941C271.567 108.034 183.484 236.897 179.342 376.055L170.139 384.93C169.756 381.972 167.608 374.043 162.086 365.997Z" fill="#23411D" stroke="#23411D" stroke-width="5.42995"/>
<path d="M46.8606 371.698L42.223 355.378C42.223 355.378 41.7881 352.564 40.8721 351.078C37.3202 345.313 23.9876 355.376 23.9876 355.376C23.9876 355.376 11.8278 353.645 7.94696 347.847C4.62492 342.885 5.7275 332.488 5.7275 332.488C5.7275 332.488 6.50663 327.17 7.98265 324.117C11.1568 317.554 15.6918 315.337 22.1051 312.062C29.3392 308.369 34.7642 310.893 42.2943 307.918C47.6188 305.815 50.5568 304.281 55.2289 300.893C65.6006 293.372 65.936 283.477 75.3331 274.708C81.8712 268.607 85.2256 263.547 93.7066 261.156C99.993 259.385 104.125 259.225 110.29 261.082C115.109 262.533 115.382 261.625 121.434 267.534C127.486 273.443 130.88 276.756 136.932 282.665C136.932 282.665 142.978 284.544 145.718 287.312C149.267 290.899 150.776 294.24 150.657 299.409C150.544 304.318 145.683 311.042 145.683 311.042C145.683 311.042 138.512 319.809 132.386 323.136C130.449 324.188 127.248 325.439 127.248 325.439C127.248 325.439 129.694 337.115 133.418 343.526C134.232 344.929 135.752 345.37 135.655 347.02C135.494 349.742 128.925 348.402 128.925 348.402L46.8606 371.698Z" fill="white" stroke="black" stroke-width="7.59459"/>
<path d="M91.4665 305.924C91.7438 304.855 92.1458 302.529 93.1122 301.817C93.4304 301.852 93.5938 301.849 93.7454 302.17C96.2489 307.491 95.7201 315.553 95.6728 321.29C99.5157 320.391 104.366 320.309 108.034 320.92C109.682 317.963 110.854 315.679 111.235 312.533C111.467 313.44 111.704 314.251 111.77 315.2C111.538 317.76 111.302 319.291 110.565 321.842C113.937 322.537 116.518 323.284 119.382 324.825C115.085 324.043 109.962 323.559 105.405 323.749C99.7984 323.619 93.6809 325.123 88.2007 326.758C80.1859 328.744 71.6702 332.766 64.7291 336.951C56.5057 341.909 53.6532 344.511 44.0694 347.12C47.2372 345.403 49.4808 344.197 52.4448 342.232C48.0748 340.681 44.0265 337.313 41.8027 333.868C45.4575 337.094 49.1576 339.463 54.3618 340.896C59.4319 337.124 63.2427 334.255 68.822 331.01C68.1185 330.34 65.8915 328.376 65.7829 327.587C66.3982 327.552 66.6758 327.873 67.2391 328.206C67.9581 328.963 69.0903 329.671 69.9542 330.344C75.6085 327.416 79.2259 326.004 85.2539 324.076C85.7563 322.97 91.0085 313.311 90.5076 311.108C92.7328 310.428 89.3187 306.22 91.4665 305.924Z" fill="black"/>
<path d="M76.7188 273.434C85.3189 266.234 93.8175 260.418 105.99 261.846C118.276 263.286 123.517 269.483 129.561 277.323L129.243 277.609C129.145 277.511 129.042 277.416 128.938 277.322C122.954 271.956 110.593 265.106 100.869 265.701C80.2568 266.964 66.4335 294.318 52.6378 305.331C48.3062 308.789 45.2391 310.223 39.7168 310.425C48.3631 306.886 54.4151 298.755 59.6155 292.362C62.1437 289.262 64.7359 286.193 67.3906 283.158C69.482 280.797 71.8386 278.499 74.0286 276.195C74.7643 275.42 76.1145 274.19 76.7188 273.434Z" fill="black"/>
<path d="M42.6086 375.978C41.6895 374.338 37.0247 355.484 37.1843 353.732C41.3281 349.26 44.5284 363.516 44.7976 364.895C45.2152 367.035 45.6674 369.315 45.8084 371.516C48.8451 370.092 51.6788 368.314 54.6355 366.761C72.8192 357.207 104.887 347.316 125.171 345.566C128.614 345.269 132.252 344.975 135.537 345.495C127.535 347.289 120.345 348.701 112.179 350.71C105.799 352.332 99.4361 354.037 93.0938 355.825C88.4877 357.143 78.8799 359.832 74.6781 361.694C68.2607 364.181 62.7085 366.378 56.4508 369.215C52.531 370.989 46.1233 374.787 42.6086 375.978Z" fill="black"/>
<path d="M135.383 282.561C146.037 283.323 155.34 293.023 152.156 302.235C149.981 308.533 146.215 314.678 139.287 318.836C136.216 320.681 130.063 323.747 126.615 324.638L126.277 324.569L126.554 324.212C135.425 320.19 146.062 308.198 147.439 300.151C148.787 292.276 141.856 287.687 135.684 283.651C135.225 283.352 135.301 282.992 135.383 282.561Z" fill="black"/>
<path d="M20.3116 313.476C24.8256 311.724 30.7324 310.838 35.2298 311.726C32.5025 312.004 30.4804 312.248 27.7925 312.958C19.7463 315.097 12.5919 319.684 7.88213 325.724C3.63853 331.244 2.59195 336.046 3.90845 341.877C4.94266 347.13 9.3359 351.525 15.5782 352.86C21.0473 354.03 28.5475 351.807 34.1902 350.272C36.9112 349.481 39.6229 348.654 42.3235 347.791C39.257 349.735 35.5297 352.225 32.1417 353.545C25.6441 356.078 18.7248 357.374 12.4207 355.587C7.86063 354.295 2.96292 350.304 1.51183 346.557C-0.685805 340.884 -0.709776 333.996 2.92594 328.01C6.75031 321.713 12.6223 316.434 20.3116 313.476Z" fill="black"/>
<path d="M127.265 325.835C127.906 325.702 128.067 325.628 128.648 325.737C130.176 327 130.674 335.806 131.614 338.17C131.99 339.116 133.704 342.75 133.652 343.492C129.504 342.187 126.8 329.536 127.265 325.835Z" fill="black"/>
<path d="M163.236 369.546C154.033 357.122 146.943 343.227 98.8133 344.697C58.5831 345.926 37.2648 391.829 31.7044 414.509C21.9259 458.489 22.5917 530.291 156.5 594.19C166.662 598.134 193.722 596.743 230.535 561.244C258.145 527.519 309.504 467.575 283.233 401.596C256.342 334.061 201.775 355.544 183.369 371.321L169.76 385.029C168.599 379.698 166.989 374.612 163.236 369.546Z" fill="#981D1D"/>
<path d="M170.493 401.596C171.019 397.912 171.175 391.527 169.76 385.029M169.76 385.029C168.599 379.698 166.989 374.612 163.236 369.546C154.033 357.122 146.943 343.227 98.8133 344.697C58.5831 345.926 37.2648 391.829 31.7044 414.509C21.9259 458.489 22.5917 530.291 156.5 594.19C166.662 598.134 193.722 596.743 230.535 561.244C258.145 527.519 309.504 467.575 283.233 401.596C256.342 334.061 201.775 355.544 183.369 371.321L169.76 385.029Z" stroke="black" stroke-width="5.42995"/>
<path d="M184.489 2.71952C191.885 2.94476 208.514 11.619 220.182 45.3179C227.347 66.0108 241.197 78.5411 254.119 85.6028C261.981 76.5134 274.942 52.7728 263.898 30.5264C252.944 8.4614 206.756 2.81021 184.489 2.71952Z" fill="#183013"/>
<path d="M254.119 85.6028C241.197 78.5411 227.347 66.0108 220.182 45.3179C208.514 11.619 191.885 2.94476 184.489 2.71952C184.306 2.71878 184.124 2.71841 183.944 2.71841C194.298 48.5081 222.828 129.191 254.119 85.6028Z" fill="#183013"/>
<path d="M309.914 61.8843C310.375 64.7243 313.174 68.1954 314.516 69.5759C315.475 69.7732 317.507 69.6943 317.967 67.801C318.427 65.9076 313.941 61.8844 311.64 60.1094C311.065 59.9121 309.914 59.991 309.914 61.8843Z" fill="#183013"/>
<path d="M314.516 69.5759C314.133 70.5248 313.02 72.0899 311.64 70.7592C310.106 69.5759 307.153 66.3809 307.614 63.0677C308.189 58.926 303.587 64.4208 305.888 65.4343C305.505 66.6176 305.428 69.3392 308.189 70.7592C309.569 71.7059 311.065 71.1537 311.64 70.7592M307.614 63.0677C308.189 61.4899 309.454 59.0443 309.914 61.8843M309.914 61.8843C310.375 64.7243 313.174 68.1954 314.516 69.5759M309.914 61.8843C309.914 59.991 311.065 59.9121 311.64 60.1094C313.941 61.8844 318.427 65.9076 317.967 67.801C317.507 69.6943 315.475 69.7732 314.516 69.5759M276.552 93.2423C271.015 92.6094 262.775 90.3328 254.119 85.6028M184.489 2.71952C184.301 2.71382 184.12 2.71353 183.944 2.71841C194.298 48.5081 222.828 129.191 254.119 85.6028M183.944 2.71841C184.124 2.71841 184.306 2.71878 184.489 2.71952M254.119 85.6028C241.197 78.5411 227.347 66.0108 220.182 45.3179C208.514 11.619 191.885 2.94476 184.489 2.71952M254.119 85.6028C261.981 76.5134 274.942 52.7728 263.898 30.5264C252.944 8.4614 206.756 2.81021 184.489 2.71952" stroke="#23411D" stroke-width="5.42995"/>
<path d="M71.8147 435.341C70.8919 436.062 70.7285 437.394 71.4499 438.318C72.1713 439.241 73.5042 439.405 74.4271 438.684L73.1209 437.013L71.8147 435.341ZM125.209 438.987C125.986 439.864 127.326 439.946 128.203 439.17C129.079 438.393 129.16 437.053 128.383 436.176L126.796 437.581L125.209 438.987ZM73.1209 437.013C74.4271 438.684 74.427 438.684 74.4269 438.684C74.427 438.684 74.427 438.684 74.4271 438.684C74.4274 438.684 74.428 438.684 74.4288 438.683C74.4306 438.682 74.4335 438.679 74.4375 438.676C74.4455 438.67 74.4581 438.66 74.4752 438.647C74.5092 438.621 74.5611 438.581 74.6299 438.528C74.7675 438.422 74.9729 438.266 75.2391 438.066C75.7716 437.666 76.5472 437.092 77.5118 436.402C79.443 435.021 82.1211 433.185 85.115 431.355C88.1154 429.522 91.3948 427.719 94.5335 426.388C97.7166 425.037 100.555 424.259 102.735 424.283L102.756 422.162L102.778 420.041C99.717 420.008 96.2311 421.059 92.875 422.483C89.4744 423.925 86.0001 425.842 82.9017 427.735C79.7969 429.633 77.0312 431.53 75.0434 432.951C74.0484 433.662 73.2457 434.256 72.6898 434.674C72.4118 434.883 72.1953 435.048 72.0473 435.161C71.9732 435.218 71.9162 435.262 71.8772 435.292C71.8577 435.307 71.8427 435.319 71.8322 435.327C71.827 435.331 71.8229 435.334 71.82 435.337C71.8185 435.338 71.8174 435.339 71.8165 435.339C71.816 435.34 71.8156 435.34 71.8154 435.34C71.815 435.341 71.8147 435.341 73.1209 437.013ZM102.756 422.162L102.735 424.283C104.877 424.305 107.342 425.118 109.944 426.493C112.521 427.855 115.079 429.687 117.365 431.555C119.645 433.418 121.613 435.284 123.013 436.686C123.712 437.386 124.266 437.967 124.643 438.371C124.832 438.573 124.976 438.73 125.072 438.835C125.119 438.888 125.155 438.927 125.178 438.953C125.19 438.966 125.198 438.975 125.203 438.981C125.206 438.984 125.207 438.986 125.208 438.987C125.209 438.987 125.209 438.988 125.209 438.988C125.209 438.988 125.209 438.988 125.209 438.988C125.209 438.987 125.209 438.987 126.796 437.581C128.383 436.176 128.383 436.175 128.383 436.175C128.382 436.175 128.382 436.174 128.382 436.174C128.381 436.173 128.38 436.172 128.379 436.171C128.376 436.168 128.373 436.164 128.369 436.16C128.361 436.151 128.35 436.138 128.336 436.122C128.307 436.09 128.265 436.044 128.211 435.984C128.103 435.865 127.945 435.693 127.742 435.476C127.337 435.042 126.75 434.427 126.014 433.689C124.544 432.218 122.468 430.249 120.048 428.271C117.634 426.299 114.837 424.282 111.924 422.743C109.036 421.216 105.876 420.074 102.778 420.041L102.756 422.162Z" fill="#0F0D0E"/>
<path d="M199.038 435.457C198.115 436.178 197.952 437.511 198.673 438.434C199.394 439.358 200.727 439.522 201.65 438.801L200.344 437.129L199.038 435.457ZM252.432 439.104C253.209 439.981 254.549 440.063 255.426 439.286C256.302 438.51 256.383 437.169 255.606 436.292L254.019 437.698L252.432 439.104ZM200.344 437.129C201.65 438.801 201.65 438.801 201.65 438.801C201.65 438.801 201.65 438.801 201.65 438.801C201.65 438.801 201.651 438.8 201.652 438.8C201.654 438.798 201.656 438.796 201.66 438.793C201.669 438.787 201.681 438.777 201.698 438.764C201.732 438.737 201.784 438.697 201.853 438.644C201.991 438.539 202.196 438.382 202.462 438.182C202.995 437.782 203.77 437.208 204.735 436.519C206.666 435.138 209.344 433.301 212.338 431.472C215.338 429.639 218.618 427.836 221.757 426.504C224.94 425.154 227.778 424.376 229.958 424.399L229.979 422.278L230.001 420.157C226.94 420.125 223.454 421.175 220.098 422.599C216.697 424.042 213.223 425.959 210.125 427.852C207.02 429.749 204.254 431.646 202.266 433.067C201.271 433.779 200.469 434.373 199.913 434.791C199.635 434.999 199.418 435.164 199.27 435.278C199.196 435.335 199.139 435.379 199.1 435.409C199.081 435.424 199.066 435.436 199.055 435.444C199.05 435.448 199.046 435.451 199.043 435.453C199.042 435.454 199.04 435.455 199.039 435.456C199.039 435.456 199.039 435.457 199.038 435.457C199.038 435.457 199.038 435.457 200.344 437.129ZM229.979 422.278L229.958 424.399C232.1 424.422 234.565 425.234 237.167 426.61C239.744 427.972 242.302 429.803 244.588 431.672C246.868 433.535 248.836 435.401 250.236 436.803C250.935 437.502 251.489 438.084 251.866 438.487C252.055 438.689 252.199 438.846 252.295 438.952C252.342 439.004 252.378 439.044 252.401 439.07C252.413 439.082 252.421 439.092 252.426 439.098C252.429 439.1 252.43 439.102 252.431 439.103C252.432 439.104 252.432 439.104 252.432 439.104C252.432 439.104 252.432 439.104 252.432 439.104C252.432 439.104 252.432 439.104 254.019 437.698C255.606 436.292 255.606 436.292 255.606 436.292C255.606 436.291 255.605 436.291 255.605 436.29C255.604 436.29 255.603 436.289 255.602 436.287C255.599 436.285 255.596 436.281 255.592 436.276C255.584 436.268 255.573 436.255 255.559 436.239C255.53 436.207 255.488 436.16 255.434 436.101C255.326 435.982 255.168 435.81 254.965 435.593C254.56 435.159 253.973 434.543 253.237 433.806C251.767 432.334 249.691 430.366 247.271 428.388C244.858 426.415 242.06 424.399 239.147 422.859C236.259 421.333 233.099 420.19 230.001 420.157L229.979 422.278Z" fill="#0F0D0E"/>
<path d="M143.928 505.188C142.534 504.028 140.465 504.217 139.306 505.61C138.147 507.003 138.338 509.073 139.731 510.232L141.83 507.71L143.928 505.188ZM201.967 505.347C203.218 504.036 203.169 501.958 201.858 500.706C200.546 499.454 198.469 499.502 197.217 500.813L199.592 503.08L201.967 505.347ZM141.83 507.71C139.731 510.232 139.732 510.233 139.732 510.233C139.733 510.234 139.733 510.234 139.734 510.235C139.735 510.235 139.736 510.237 139.738 510.238C139.741 510.241 139.746 510.244 139.751 510.249C139.762 510.258 139.778 510.271 139.797 510.287C139.837 510.319 139.893 510.366 139.966 510.425C140.111 510.543 140.322 510.713 140.592 510.927C141.131 511.355 141.909 511.96 142.875 512.682C144.804 514.121 147.504 516.037 150.58 517.931C153.645 519.817 157.15 521.724 160.681 523.106C164.161 524.469 167.952 525.439 171.493 525.155L171.228 521.884L170.964 518.612C168.865 518.78 166.162 518.205 163.072 516.994C160.033 515.804 156.894 514.111 154.019 512.341C151.155 510.578 148.62 508.781 146.799 507.422C145.891 506.744 145.164 506.178 144.669 505.785C144.421 505.589 144.232 505.436 144.106 505.334C144.043 505.283 143.997 505.244 143.967 505.22C143.952 505.207 143.941 505.198 143.935 505.193C143.931 505.19 143.929 505.189 143.928 505.188C143.928 505.187 143.927 505.187 143.927 505.187C143.927 505.187 143.927 505.187 143.927 505.187C143.928 505.187 143.928 505.188 141.83 507.71ZM171.228 521.884L171.493 525.155C175.016 524.873 178.693 523.314 182.037 521.42C185.437 519.495 188.784 517.054 191.703 514.697C194.631 512.332 197.188 510.003 199.01 508.269C199.923 507.4 200.655 506.677 201.162 506.168C201.416 505.913 201.614 505.711 201.749 505.572C201.817 505.502 201.87 505.448 201.907 505.41C201.925 505.391 201.939 505.376 201.949 505.366C201.954 505.36 201.958 505.356 201.961 505.353C201.963 505.351 201.964 505.35 201.965 505.349C201.965 505.349 201.966 505.348 201.966 505.348C201.967 505.347 201.967 505.347 199.592 503.08C197.217 500.813 197.218 500.813 197.218 500.813C197.218 500.813 197.218 500.812 197.218 500.812C197.218 500.813 197.218 500.813 197.217 500.813C197.216 500.815 197.214 500.817 197.21 500.82C197.204 500.827 197.194 500.838 197.179 500.853C197.15 500.883 197.105 500.929 197.046 500.991C196.926 501.114 196.745 501.298 196.51 501.534C196.039 502.007 195.348 502.689 194.483 503.513C192.749 505.163 190.329 507.366 187.577 509.589C184.815 511.819 181.775 514.023 178.8 515.708C175.768 517.425 173.08 518.442 170.964 518.612L171.228 521.884Z" fill="#0F0D0E"/>
<path d="M182.284 519.591L195.659 506.793C195.659 506.793 207.061 514.829 210.723 520.584C214.385 526.34 214.981 529.447 212.374 533.993C209.545 538.927 206.27 542.164 198.799 538.486C191.328 534.809 182.284 519.591 182.284 519.591Z" fill="#E74B7F" stroke="black" stroke-width="3.5253"/>
<path d="M191.049 513.325C190.373 512.616 189.261 512.587 188.566 513.259C187.87 513.931 187.854 515.051 188.53 515.759L189.79 514.542L191.049 513.325ZM194.295 521.805C194.971 522.514 196.083 522.543 196.778 521.871C197.474 521.199 197.49 520.079 196.814 519.37L195.554 520.588L194.295 521.805ZM189.79 514.542L188.53 515.759L194.295 521.805L195.554 520.588L196.814 519.37L191.049 513.325L189.79 514.542Z" fill="black"/>
</svg>
