<svg width="158" height="310" viewBox="0 0 158 310" fill="none" xmlns="http://www.w3.org/2000/svg">
<path d="M72.7615 189.307C78.7773 153.11 102.494 71.2951 149.233 33.6097H153.516C130.982 55.9396 84.1405 122.562 81.9381 194.507L77.0439 199.095C76.84 197.566 75.698 193.467 72.7615 189.307Z" fill="#23411D" stroke="#23411D" stroke-width="2.97942"/>
<path d="M73.3733 191.142C68.4791 184.718 64.7088 177.535 39.1138 178.295C17.7199 178.93 6.38303 202.662 3.42611 214.388C-1.77398 237.125 -1.41995 274.247 69.7908 307.283C75.1948 309.322 89.5853 308.603 109.162 290.249C123.845 272.814 151.157 241.823 137.186 207.711C122.886 172.796 93.8678 183.902 84.0794 192.059L76.8426 199.146C76.2251 196.39 75.3689 193.761 73.3733 191.142Z" fill="#981D1D"/>
<path d="M77.232 207.711C77.5121 205.807 77.5952 202.506 76.8426 199.146M76.8426 199.146C76.2251 196.39 75.3689 193.761 73.3733 191.142C68.4791 184.718 64.7088 177.535 39.1138 178.295C17.7199 178.93 6.38303 202.662 3.42611 214.388C-1.77398 237.125 -1.41995 274.247 69.7908 307.283C75.1948 309.322 89.5853 308.603 109.162 290.249C123.845 272.814 151.157 241.823 137.186 207.711C122.886 172.796 93.8678 183.902 84.0794 192.059L76.8426 199.146Z" stroke="black" stroke-width="2.97942"/>
<path d="M84.6747 1.49209C88.6078 1.60854 97.451 6.0931 103.656 23.5154C107.467 34.2137 114.831 40.6918 121.704 44.3428C125.884 39.6435 132.777 27.3697 126.904 15.8683C121.079 4.46065 96.5161 1.53898 84.6747 1.49209Z" fill="#183013"/>
<path d="M121.704 44.3428C114.831 40.6918 107.467 34.2137 103.656 23.5154C97.451 6.0931 88.6078 1.60854 84.6747 1.49209C84.5773 1.49171 84.4809 1.49152 84.3853 1.49152C89.8912 25.1648 105.063 66.8777 121.704 44.3428Z" fill="#183013"/>
<path d="M151.375 32.0803C151.619 33.5486 153.108 35.3431 153.822 36.0569C154.332 36.1589 155.412 36.1181 155.657 35.1392C155.902 34.1604 153.516 32.0803 152.292 31.1627C151.986 31.0607 151.375 31.1014 151.375 32.0803Z" fill="#183013"/>
<path d="M153.822 36.0569C153.618 36.5474 153.026 37.3566 152.292 36.6686C151.477 36.0569 149.906 34.4051 150.151 32.6921C150.457 30.5509 148.01 33.3917 149.234 33.9156C149.03 34.5274 148.989 35.9345 150.457 36.6686C151.191 37.1581 151.986 36.8726 152.292 36.6686M150.151 32.6921C150.457 31.8764 151.13 30.612 151.375 32.0803M151.375 32.0803C151.619 33.5486 153.108 35.3431 153.822 36.0569M151.375 32.0803C151.375 31.1014 151.986 31.0607 152.292 31.1627C153.516 32.0803 155.902 34.1604 155.657 35.1392C155.412 36.1181 154.332 36.1589 153.822 36.0569M133.633 48.2924C130.688 47.9652 126.307 46.7882 121.704 44.3428M84.6747 1.49209C84.575 1.48914 84.4785 1.489 84.3853 1.49152C89.8912 25.1648 105.063 66.8777 121.704 44.3428M84.3853 1.49152C84.4809 1.49152 84.5773 1.49171 84.6747 1.49209M121.704 44.3428C114.831 40.6918 107.467 34.2137 103.656 23.5154C97.451 6.0931 88.6078 1.60854 84.6747 1.49209M121.704 44.3428C125.884 39.6435 132.777 27.3697 126.904 15.8683C121.079 4.46065 96.5161 1.53898 84.6747 1.49209" stroke="#23411D" stroke-width="2.97942"/>
<path d="M85.8099 261.072C91.1481 262.241 98.4624 262.945 93.0876 269.693C87.4047 271.592 82.9354 264.473 85.8099 261.072Z" fill="#981D1D"/>
<path d="M100.69 221.464C103.275 221.438 116.051 220.422 116.892 222.548C115.379 223.89 101.066 223.371 98.0156 223.358C95.6346 223.259 92.562 223.364 90.1287 223.38C90.1461 225.09 90.3178 226.077 88.84 227.118C87.2328 227.099 85.9813 226.411 85.2996 224.932C85.4638 220.583 97.4757 221.486 100.69 221.464Z" fill="#0C0A0B"/>
<path d="M31.9926 218.615C34.3039 218.687 52.777 219.515 53.3717 219.961C53.5284 220.81 53.6055 220.435 53.1851 221.135C51.7993 221.92 49.2914 221.539 47.6319 221.415C42.7182 221.07 38.4041 220.598 33.4456 220.496C33.4331 221.229 33.4704 222.377 33.0674 222.998C32.7042 223.55 32.112 223.909 31.4552 223.974C30.0495 224.12 28.3453 222.84 28.3055 221.371C28.2532 219.576 30.0022 219.697 31.2636 219.446C31.2636 219.446 31.9229 218.694 31.9926 218.615Z" fill="#0C0A0B"/>
<path d="M74.2356 257.804C77.4053 257.527 80.6347 257.661 83.8043 257.822C84.8717 257.876 84.8841 257.878 85.4663 258.523L85.3917 259.109C84.4686 259.927 70.1629 259.874 67.2868 260.128C65.1969 260.226 57.8251 261.714 56.8075 260.398L57.0314 259.859C58.5615 258.649 71.7153 257.929 74.2356 257.804Z" fill="#0C0A0B"/>
</svg>
