<svg width="313" height="623" viewBox="0 0 313 623" fill="none" xmlns="http://www.w3.org/2000/svg">
<path d="M28.6374 396.758C23.9293 385.63 28.9285 368.198 30.4243 356.06C33.5864 330.342 37.6018 304.561 41.5168 278.964C44.8898 267.447 35.9755 270.235 34.6103 266.592C29.7817 253.711 42.8018 247.466 52.1277 251.792C62.0859 256.41 55.4002 265.17 56.5145 266.283C62.7886 272.54 67.4465 277.125 73.4295 283.439C84.1306 295.255 121.856 340.677 116.053 355.881C120.279 360.06 137.877 359.614 147.735 373.981C147.323 372.206 159.028 390.876 160.554 394.34C164.329 390.55 168.264 386.256 172.581 383.227L172.831 382.342C202.355 357.686 242.539 361.064 265.337 393.639C281.338 416.754 287.954 445.558 283.728 473.758C278.889 505.143 262.667 533.284 244.487 558.217C232.019 575.313 219.872 590.905 202.586 603.282C187.95 613.862 167.652 625.182 149.201 621.742C138.971 619.507 129.354 613.334 120.239 608.287C68.5809 579.691 13.198 534.185 11.0498 467.583C10.3872 447.346 16.4305 413.037 28.6374 396.758Z" fill="#A60012"/>
<path d="M28.6371 396.758C23.929 385.63 28.9282 368.198 30.424 356.06C33.5861 330.342 37.6015 304.561 41.5165 278.964C44.8895 267.447 35.9752 270.235 34.61 266.592C29.7814 253.711 42.8015 247.466 52.1274 251.792C62.0856 256.41 55.3999 265.17 56.5142 266.283C62.7883 272.54 67.4462 277.125 73.4292 283.439C84.1303 295.255 121.855 340.677 116.053 355.881C113.844 357.134 113.473 357.322 112.128 359.544C105.271 360.599 93.6871 358.194 90.1535 361.055C66.5829 365.782 46.9675 377.261 33.8872 398.688C30.0324 398.385 31.6988 399.051 28.6371 396.758Z" fill="#050001"/>
<path d="M96.2168 333.264C97.2507 333.198 97.5821 333.434 98.6462 333.733C101.949 339.496 104.73 346.984 107.279 353.267C79.3821 351.1 66.0207 355.793 44.6285 374.068L37.471 380.726L38.1436 365.87C42.0185 362.956 46.9575 357.651 51.1737 354.131C64.254 343.293 79.7535 336.113 96.2168 333.264Z" fill="#00EFF7"/>
<path d="M84.1704 312.094L87.3928 312.503C91.3882 315.863 94.3997 321.371 97.2909 325.929C74.8546 331.618 63.0191 337.518 44.7991 351.476L36.6578 359.63C37.1598 355.7 37.9026 348.82 39.5088 345.456C48.0917 327.456 66.8538 317.902 84.1704 312.094Z" fill="white"/>
<path d="M69.073 297.356C70.2375 297.298 72.2652 297.443 73.4999 297.488C77.0134 299.926 79.2421 304.474 81.6112 308.336C69.1332 311.289 59.4761 315.222 49.5479 323.985C45.4522 326.128 44.2175 327.887 40.714 324.739C40.1117 320.958 42.7016 312.648 43.7456 308.526C53.1417 304.515 58.6429 300.977 69.073 297.356Z" fill="#00EFF7"/>
<path d="M49.4976 271.377C56.3841 275.07 62.6381 281.963 68.1693 287.682C64.5053 288.801 60.0983 290.698 56.4643 292.14C52.5493 294.339 48.5941 297.876 45.0505 300.787C46.3856 290.941 47.6003 281.123 49.4976 271.377Z" fill="white"/>
<path d="M44.1369 255.976C48.313 255.953 49.2065 255.684 51.6358 259.073C51.8767 263.285 52.3084 261.344 50.13 265.063L47.9014 264.689C43.5346 265.292 41.1254 266.221 39.0675 261.719C40.5833 257.814 40.3423 258.898 44.1369 255.976Z" fill="#00EFF7"/>
<path d="M90.1538 361.055C93.6874 358.193 105.272 360.599 112.128 359.544C113.473 357.321 113.845 357.133 116.053 355.881C120.279 360.06 137.877 359.614 147.735 373.98C147.323 372.206 159.028 390.875 160.554 394.34C164.329 390.55 168.264 386.256 172.581 383.226L172.831 382.342C202.355 357.686 242.539 361.064 265.337 393.639C281.338 416.753 287.954 445.558 283.728 473.758C278.889 505.143 262.667 533.284 244.487 558.217C232.019 575.313 219.872 590.904 202.586 603.281C187.95 613.862 167.652 625.181 149.201 621.741C138.971 619.506 129.354 613.333 120.239 608.287C68.5809 579.69 13.198 534.184 11.0498 467.583C10.3872 447.345 16.4305 413.037 28.6374 396.757C31.6991 399.051 30.0327 398.385 33.8875 398.687C23.9594 419.251 18.3579 432.576 16.9726 456.188C12.7764 527.518 72.0843 575.464 126.463 604.82C134.544 609.18 145.747 616.51 155.415 616.302C178.343 615.81 201.401 598.381 217.423 582.458C246.454 549.352 279.682 502.704 279.16 455.879C278.738 431.055 269.784 405.826 253.1 388.123C233.896 367.74 206.32 368.849 183.753 382.254C174.618 387.681 169.539 393.469 162.381 401.323C162.923 407.558 164.309 412.88 160.725 417.463C159.902 417.357 159.079 417.25 158.255 417.143C157.874 413.848 156.348 404.158 155.726 401.439C153.798 393.297 150.094 385.736 144.894 379.352C129.846 360.714 111.516 362.957 90.1538 361.055Z" fill="#050001"/>
<path d="M146.119 520.051C150.847 519.704 156.097 518.861 160.353 521.603C165.583 524.98 163.606 530.252 166.186 535.475C177.79 541.404 204.382 541.24 212.263 550.843C216.629 556.163 207.123 572.947 200.507 576.538C191.774 576.171 192.557 564.538 187.146 560.358C184.526 558.339 185.309 559.172 182.84 556.238L182.237 555.519C171.797 549.265 170.211 547.156 161.819 557.2C155.334 564.953 140.136 564.543 140.929 550.468L141.932 549.704C147.243 550.606 153.236 562.015 160.363 547.569C159.54 539.882 151.911 542.68 148.106 536.709L148.668 533.942C151.83 531.757 153.115 532.429 157.332 532.258C159.369 530.24 158.837 531.423 159.189 528.723C155.414 526.182 149.381 528.405 145.195 525.745C144.382 522.329 144.342 523.75 146.119 520.051Z" fill="#050001"/>
<path d="M202.546 550.921C205.868 550.804 206.993 551.751 208.318 554.612C207.404 559.474 203.429 565.096 200.759 569.472L197.175 568.832C191.674 563.044 198.671 556.255 202.546 550.921Z" fill="#00EFF7"/>
<path d="M177.56 543.711C181.254 544.454 190.339 547.285 193.471 549.476C194.836 552.848 194.665 551.376 193.2 555.595C191.995 555.739 190.79 555.793 189.576 555.756C185.811 555.625 180.571 552.926 177.821 550.035C176.385 546.371 176.616 547.929 177.56 543.711Z" fill="#00EFF7"/>
<path d="M105.061 438.176C109.257 437.903 116.806 437.506 120.149 440.271C123.281 442.861 126.232 448.254 123.251 451.991C118 453.037 117.047 449.962 114.366 446.079C109.377 443.016 104.107 445.357 98.2143 446.792C88.9286 450.118 84.3611 458.883 77.6052 456.697C77.053 446.712 97.9433 439.837 105.061 438.176Z" fill="#050001"/>
<path d="M222.251 444.706C230.081 444.245 240.401 447.534 243.332 455.921L242.519 457.429C237.078 459.093 233.826 453.37 227.833 451.773C225.373 451.117 220.033 451.526 217.383 451.67C202.164 454.486 208.498 459.13 197.486 459.291L195.529 457.131C199.725 447.671 213.568 445.399 222.251 444.706Z" fill="#050001"/>
<path d="M169.699 0C201.863 0.0756503 262.717 5.72 262.155 51.1406C261.994 64.412 256.533 78.0332 249.145 88.6621C254.997 90.567 261.141 92.681 267.043 94.2686C273.448 86.7393 309.406 40.8953 313 70.7488C309.898 79.3466 302.761 74.6679 296.557 82.3422C230.061 164.599 180.019 269.579 171.958 378.088C171.838 379.739 172.259 380.904 172.831 382.342L172.58 383.226C168.264 386.256 164.329 390.55 160.554 394.34C159.028 390.875 147.323 372.206 147.735 373.98C151.228 368.384 158.115 328.866 160.906 318.864C181.936 243.341 213.116 159.509 262.887 99.4402C256.071 97.4691 252.417 95.9802 245.862 93.1024C234.197 105.618 220.976 110.864 208.378 95.8962C188.24 71.9634 176.014 30.7371 169.699 0Z" fill="#194118"/>
<path d="M189.867 7.12711C194.314 7.18489 198.62 7.75542 203.007 8.41001C242.68 14.3391 267.144 30.9527 250.6 75.3353C249.245 77.7887 246.585 83.8417 243.694 83.6053C236.817 83.1956 229.389 74.6208 225.484 68.8682C209.803 45.818 209.502 28.512 189.867 7.12711Z" fill="#0C310F"/>
<path d="M177.047 7.1035C206.631 18.803 203.248 59.8958 226.558 78.6529C229.419 80.9518 238.323 88.603 239.186 91.6238L237.259 95.2749C223.335 103.185 213.477 95.794 205.828 83.3432C192.236 61.2323 182.458 32.6292 177.047 7.1035Z" fill="#0C310F"/>
<path d="M16.0529 300.762C17.9 301.742 17.6189 301.723 19.205 303.229C19.6567 308.597 9.27677 318.49 5.31153 326.09L4.72934 327.235L9.55783 329.843C23.9833 337.517 14.7479 346.786 8.77491 358.221C13.8344 366.862 14.4366 374.991 18.1409 384.161C19.1146 386.567 18.6729 386.144 17.92 389.3C6.32549 385.077 8.90539 373.559 1.71777 358.854C4.70926 350.41 7.37954 346.274 12.0274 338.595C-11.1115 328.085 4.17725 314.091 16.0529 300.762Z" fill="#FF427C"/>
<path d="M24.9216 556.048C27.9332 555.118 26.4378 555.186 29.6016 555.954C31.4402 562.631 22.9146 572.179 28.5489 577.013C34.9537 576.405 37.1332 569.313 43.8358 570.813C47.5743 575.175 44.6097 585.155 45.5751 593.785L45.7333 595.159C51.1759 595.197 60.7979 593.095 66.6145 592.078C67.963 595.947 67.9073 594.077 67.0459 597.868C64.0413 599.749 61.2952 600.216 57.9571 601.027C37.9957 605.866 41.1111 596.987 38.5129 583.603C34.1022 578.611 9.50232 593.88 24.9216 556.048Z" fill="#FE00FE"/>
<path d="M252.186 274.502C251.383 262.683 262.958 260.015 271.199 263.617C276.49 270.267 265.317 278.424 269.312 280.873C286.849 291.623 256.904 313.878 251.835 301.941C253.943 296.991 262.697 296.979 267.395 292.581C268.328 289.397 268.338 291.012 266.843 287.605C259.896 282.438 257.617 287.171 252.547 284.058C252.005 281.548 252.598 280.318 253.27 277.817L253.541 276.804L252.186 274.502Z" fill="#00FE00"/>
<path d="M252.186 274.502C259.253 273.21 257.155 270.571 263.64 269.188L265.096 269.784C260.217 279.118 254.636 277.575 252.548 284.058C252.006 281.548 252.598 280.318 253.271 277.817L253.542 276.804L252.186 274.502Z" fill="#EFFFE7"/>
<path d="M299.76 502.863C304.844 504.911 307.238 507.334 307.263 513.102C304.178 519.914 301.497 520.331 294.888 522.896C306.292 540.719 293.601 556.283 274.324 557.462C272.377 557.58 271.53 554.898 270.668 553.261C274.164 550.493 279.821 549.727 283.796 547.696C300.186 539.297 291.224 532.728 286.968 522.77C287.842 514.171 294.87 518.303 300.687 512.534C298.76 508.943 291.923 508.748 289.194 504.306L290.352 502.719C293.444 501.051 296.154 502.158 299.76 502.863Z" fill="#FF9100"/>
<path d="M281.238 357.88L286.358 359.243C291.246 363.595 290.463 376.891 286.9 382.376C283.487 384.635 285.273 384.118 281.378 384.174C280.686 384.109 279.993 384.035 279.29 383.949C274.612 383.369 273.9 382.98 271.32 379.521C270.195 372.119 276.881 364.467 281.238 357.88Z" fill="#FF427C"/>
<path d="M255.951 342.773C258.963 342.957 259.063 342.854 262.034 343.971C266.321 348.655 267.807 360.255 263.62 365.092L261.522 365.027C255.931 362.804 251.956 362.383 249.667 356.222C250.109 351.557 253.471 346.967 255.951 342.773Z" fill="#FF9100"/>
<path d="M278.467 335.637C282.914 336.378 286.117 339.615 287.402 343.955C285.926 347.707 286.418 346.521 282.533 349.153C279.19 351.327 278.317 352.107 274.592 351.007C271.44 344.985 274.05 340.015 278.467 335.637Z" fill="#FE00FE"/>
</svg>
